<svg xmlns="http://www.w3.org/2000/svg" width="39.699" height="39.699" viewBox="0 0 39.699 39.699"><path d="M11.142 27.589a2.9 2.9 0 0 0 2.9-2.9 1.49 1.49 0 0 0 0-.29l5.4-5.4h.89l3.115 3.115v.155a2.9 2.9 0 0 0 5.8 0v-.155l7.043-7.1a2.9 2.9 0 1 0-2.9-2.9 1.489 1.489 0 0 0 0 .29l-6.985 6.985H26.1l-3.348-3.409a2.9 2.9 0 0 0-5.8 0l-5.8 5.8a2.9 2.9 0 0 0 0 5.8zm26.122 7.74H4.37V2.435a1.935 1.935 0 1 0-3.87 0v34.829A1.935 1.935 0 0 0 2.435 39.2h34.829a1.935 1.935 0 1 0 0-3.87z" stroke="#d2d4fa"/></svg>