<svg xmlns="http://www.w3.org/2000/svg" width="34.065" height="34.021" viewBox="0 0 34.065 34.021"><defs><style>.a{fill:#111;stroke:#d2fafa}</style></defs><path class="a" d="M33.565 20.934a3.147 3.147 0 0 0-3.147-3.147h-9.44a3.147 3.147 0 0 0-3.151 3.147h-4.72v-4.72h3.67a5.759 5.759 0 0 0 1.84-11.216A7.867 7.867 0 0 0 3.78 7.009a4.72 4.72 0 0 0 1.463 9.2h4.72v12.589a1.573 1.573 0 0 0 1.573 1.573h6.291a3.147 3.147 0 0 0 3.147 3.147h9.44a3.147 3.147 0 0 0 3.147-3.147v-3.143a3.147 3.147 0 0 0-.441-1.573 3.147 3.147 0 0 0 .441-1.573zM5.244 13.067a1.573 1.573 0 1 1 0-3.147 1.573 1.573 0 0 0 1.573-1.573 4.72 4.72 0 0 1 9.189-1.573 1.573 1.573 0 0 0 1.227 1.038 2.6 2.6 0 0 1 2.171 2.628 2.628 2.628 0 0 1-2.628 2.628zm12.583 14.161h-4.72v-3.147h4.72a3.147 3.147 0 0 0 .441 1.573 3.147 3.147 0 0 0-.441 1.574zm3.147 3.147v-3.147h9.44v3.147zm0-6.294v-3.147h9.44v3.147z"/></svg>