<svg xmlns="http://www.w3.org/2000/svg" width="29.179" height="29.128" viewBox="0 0 29.179 29.128"><defs><style>.a{fill:#111}</style></defs><path class="a" d="M25.87 3.771a6.629 6.629 0 0 0-12.037.172H7.946a3.977 3.977 0 0 0-3.977 3.973v5.3a1.326 1.326 0 0 0 2.651 0v-5.3A1.326 1.326 0 0 1 7.946 6.59h3.685a3.96 3.96 0 0 0 2.943 6.629h9.72a4.852 4.852 0 0 0 1.576-9.448zm-1.576 6.8h-9.719a1.326 1.326 0 1 1 0-2.651 1.326 1.326 0 0 0 1.326-1.326 3.977 3.977 0 0 1 7.742-1.326 1.326 1.326 0 0 0 1.034.888 2.187 2.187 0 0 1 1.829 2.2 2.214 2.214 0 0 1-2.212 2.215zm-.437 5.3a1.326 1.326 0 0 0-1.326 1.326v3.974a1.326 1.326 0 0 1-1.326 1.326h-3a4.852 4.852 0 0 0-2.941-2.826 6.629 6.629 0 0 0-12.528 1.7 3.977 3.977 0 0 0 1.233 7.755h9.717a4.852 4.852 0 0 0 4.773-3.977h2.744a3.977 3.977 0 0 0 3.977-3.978v-3.975a1.326 1.326 0 0 0-1.325-1.325zm-10.171 10.6H3.969a1.326 1.326 0 1 1 0-2.651 1.326 1.326 0 0 0 1.325-1.321 3.977 3.977 0 0 1 7.743-1.328 1.326 1.326 0 0 0 1.034.888 2.187 2.187 0 0 1 1.829 2.2 2.214 2.214 0 0 1-2.214 2.212z"/></svg>