<svg xmlns="http://www.w3.org/2000/svg" width="22.727" height="28.309" viewBox="0 0 22.727 28.309"><defs><style>.a{fill:#111;stroke:#faebd2;stroke-width:.4px}</style></defs><path class="a" d="M5.782 20.434a1.4 1.4 0 1 0 1.4 1.4 1.4 1.4 0 0 0-1.4-1.4zM11.364.2C5.782.2.2 2.112.2 5.782v16.745c0 3.673 5.582 5.582 11.164 5.582s11.163-1.909 11.163-5.582V5.782C22.527 2.112 16.946.2 11.364.2zm8.373 22.327c0 .991-3.182 2.791-8.373 2.791s-8.373-1.8-8.373-2.791v-4.563a18.364 18.364 0 0 0 8.373 1.772 18.364 18.364 0 0 0 8.373-1.772zm0-8.373c0 .991-3.182 2.791-8.373 2.791s-8.373-1.8-8.373-2.791V9.591a18.364 18.364 0 0 0 8.373 1.772 18.364 18.364 0 0 0 8.373-1.772zm-8.373-5.582c-5.191 0-8.373-1.8-8.373-2.791S6.173 2.99 11.364 2.99s8.373 1.8 8.373 2.791-3.182 2.792-8.373 2.792zm-5.582 3.489a1.4 1.4 0 1 0 1.4 1.4 1.4 1.4 0 0 0-1.4-1.4z"/></svg>