<svg xmlns="http://www.w3.org/2000/svg" width="59.299" height="59.299" viewBox="0 0 59.299 59.299"><path data-name="Path 106" d="M29.641 51.95H10.117a2.789 2.789 0 0 1-2.789-2.789V10.117a2.789 2.789 0 0 1 2.789-2.789h13.946v8.367a8.367 8.367 0 0 0 8.367 8.367h8.367v2.788a2.789 2.789 0 1 0 5.578 0v-5.744a3.654 3.654 0 0 0-.167-.753v-.251a2.984 2.984 0 0 0-.53-.781L28.944 2.587a2.984 2.984 0 0 0-.781-.53.892.892 0 0 0-.251 0 2.454 2.454 0 0 0-.92-.307H10.117a8.367 8.367 0 0 0-8.367 8.367v39.048a8.367 8.367 0 0 0 8.367 8.367h19.524a2.789 2.789 0 0 0 0-5.578zm0-40.693l7.224 7.224H32.43a2.789 2.789 0 0 1-2.789-2.789zm27.082 41.5l-3.263-3.229a9.6 9.6 0 0 0-1.51-11.519 9.821 9.821 0 1 0-2.422 15.451l3.235 3.263a2.8 2.8 0 1 0 3.961-3.961zm-8.842-4.881a4.3 4.3 0 0 1-5.885 0 4.184 4.184 0 0 1-1.2-2.929 4.072 4.072 0 0 1 1.227-2.956 4.168 4.168 0 0 1 7.14 2.956 4.184 4.184 0 0 1-1.283 2.929z" stroke="#d2ead5" stroke-width="3.5"/><g fill="none" stroke="#000" stroke-linecap="round" stroke-linejoin="round" stroke-width="3"><path data-name="Path 107" d="M19.366 43.251V32.625"/><path data-name="Path 108" d="M25.741 43.249v-17"/><path data-name="Path 109" d="M12.99 43.25V39"/></g></svg>