<svg xmlns="http://www.w3.org/2000/svg" width="61.925" height="68.25" viewBox="0 0 61.925 68.25"><path d="M49.938 53.1a3.163 3.163 0 0 0-3.163 3.162 3.163 3.163 0 0 1-3.162 3.163H11.987a3.163 3.163 0 0 1-3.162-3.163V11.988a3.162 3.162 0 0 1 3.162-3.163H27.8v9.487a9.488 9.488 0 0 0 9.487 9.488h9.487v3.162a3.163 3.163 0 0 0 6.325 0v-6.514a4.143 4.143 0 0 0-.19-.854 1.012 1.012 0 0 0 0-.285 3.384 3.384 0 0 0-.6-.885L33.334 3.449a3.384 3.384 0 0 0-.885-.6h-.316a3.605 3.605 0 0 0-.949-.349h-19.2A9.488 9.488 0 0 0 2.5 11.988v44.275a9.487 9.487 0 0 0 9.487 9.487h31.625a9.487 9.487 0 0 0 9.488-9.487 3.163 3.163 0 0 0-3.162-3.163zM34.125 13.284l8.191 8.191h-5.029a3.163 3.163 0 0 1-3.162-3.163zM56.263 40.45h-7.907a3.163 3.163 0 0 0-2.245.917l-3.922 3.953-8.855-10.12a3.162 3.162 0 0 0-4.617-.158l-5.376 5.408h-5.028a3.163 3.163 0 1 0 0 6.325h6.325a3.163 3.163 0 0 0 2.245-.917l4.08-3.953 8.855 10.12a3.069 3.069 0 0 0 4.522.158l5.313-5.408h6.61a3.163 3.163 0 0 0 0-6.325z" fill="#24b92f" stroke="#fff" stroke-width="5"/></svg>