<svg xmlns="http://www.w3.org/2000/svg" width="31.387" height="31.387" viewBox="0 0 31.387 31.387"><defs><style>.a{fill:#30af43;stroke:#fff}</style></defs><path class="a" d="M15.689 27.84H5.057a1.519 1.519 0 0 1-1.519-1.519V5.057a1.519 1.519 0 0 1 1.519-1.519h7.594v4.556a4.557 4.557 0 0 0 4.557 4.557h4.557v1.519a1.519 1.519 0 1 0 3.038 0v-3.129a1.99 1.99 0 0 0-.091-.41v-.137a1.625 1.625 0 0 0-.289-.425L15.309.956a1.625 1.625 0 0 0-.425-.289.486.486 0 0 0-.137 0 1.337 1.337 0 0 0-.5-.167h-9.19A4.557 4.557 0 0 0 .5 5.057v21.264a4.557 4.557 0 0 0 4.557 4.557h10.632a1.519 1.519 0 0 0 0-3.038zm0-22.161l3.934 3.934h-2.415a1.519 1.519 0 0 1-1.519-1.519zm14.748 22.6l-1.777-1.76a5.225 5.225 0 0 0-.82-6.273 5.348 5.348 0 1 0-1.321 8.415l1.762 1.777a1.525 1.525 0 1 0 2.157-2.157zm-4.815-2.658a2.339 2.339 0 0 1-3.2 0 2.278 2.278 0 0 1-.653-1.595 2.218 2.218 0 0 1 .668-1.61 2.27 2.27 0 0 1 3.888 1.61 2.278 2.278 0 0 1-.7 1.595z"/><path class="a" d="M6.132 21.651v2.114a1.519 1.519 0 1 0 3.038 0v-2.113a1.519 1.519 0 1 0-3.038 0zm4-2v4.114a1.519 1.519 0 1 0 3.038 0v-4.113a1.519 1.519 0 1 0-3.038 0zm4-5v9.114a1.519 1.519 0 1 0 3.038 0v-9.113a1.519 1.519 0 1 0-3.038 0z"/></svg>