<svg xmlns="http://www.w3.org/2000/svg" width="45" height="20" viewBox="0 0 45 20"><defs><style>.a{fill:#111}</style></defs><path class="a" d="M40 17.5a2.5 2.5 0 0 0 2.487-2.5L42.5 2.5A2.507 2.507 0 0 0 40 0H20a2.507 2.507 0 0 0-2.5 2.5V15a2.507 2.507 0 0 0 2.5 2.5h-5V20h30v-2.5zm-20-15h20V15H20zM7.71 14.29l-.15-.12a.76.76 0 0 0-.18-.09L7.2 14a1 1 0 0 0-.91.27 1.15 1.15 0 0 0-.21.33 1 1 0 0 0 1.3 1.31 1.46 1.46 0 0 0 .33-.22.99.99 0 0 0 0-1.4zM11 0H3a3 3 0 0 0-3 3v14a3 3 0 0 0 3 3h8a3 3 0 0 0 3-3V3a3 3 0 0 0-3-3zm1 17a1 1 0 0 1-1 1H3a1 1 0 0 1-1-1V3a1 1 0 0 1 1-1h8a1 1 0 0 1 1 1z"/></svg>