<svg xmlns="http://www.w3.org/2000/svg" width="32" height="28.336" viewBox="0 0 32 28.336"><defs><style>.a{fill:none;stroke:#111;stroke-width:2px}</style></defs><g transform="translate(-1 -2.573)"><circle class="a" cx="5.5" cy="5.5" r="5.5" transform="translate(7 7.909)"/><path class="a" d="M12.909 21.727C9.268 21.727 2 23.555 2 27.182v2.727h21.818v-2.727c0-3.627-7.268-5.455-10.909-5.455zM23.491 8.589l-2.3 2.3a4.524 4.524 0 0 1 0 5.3l2.3 2.3a6.978 6.978 0 0 0 0-9.9zM28.011 4l-2.222 2.223a10.864 10.864 0 0 1-.007 14.639l2.23 2.23A13.416 13.416 0 0 0 28.011 4z"/></g></svg>