<svg xmlns="http://www.w3.org/2000/svg" width="43.82" height="40.795" viewBox="0 0 43.82 40.795"><path d="M29.251 13.554a10.605 10.605 0 0 0-14.88 14.988 6.016 6.016 0 0 1 1.511 3.8v3.975a3.975 3.975 0 0 0 3.975 3.975h5.3a3.975 3.975 0 0 0 3.975-3.975v-3.721a6.851 6.851 0 0 1 1.617-4.227 10.6 10.6 0 0 0-1.5-14.841zm-2.769 22.765a1.325 1.325 0 0 1-1.325 1.323h-5.3a1.325 1.325 0 0 1-1.325-1.325v-1.323h7.951zm2.213-9.594a9.448 9.448 0 0 0-2.213 5.617h-2.65v-3.973a1.325 1.325 0 0 0-2.65 0v3.973h-2.65a8.613 8.613 0 0 0-2.12-5.512 7.947 7.947 0 1 1 14.045-5.088 7.8 7.8 0 0 1-1.762 4.982z" stroke="#def8d5"/><path fill="none" stroke="#000" stroke-width=".5" d="M21.91 8.639V4.468M8.377 28.078H4.206m4.171-9.533l-4.171-1.192m8.342-7.151L9.82 7.521M8.377 23.312L.035 22.12m9.98-8.342L2.567 9.607m14.45-.745L14.336.073m21.106 28.005h4.171m-4.171-9.533l4.171-1.192m-8.342-7.151l2.728-2.681m1.443 15.791l8.342-1.192m-9.981-8.342l7.448-4.171m-14.449-.745L29.483.073"/></svg>