<svg xmlns="http://www.w3.org/2000/svg" width="20.997" height="21.002" viewBox="0 0 20.997 21.002"><path data-name="Path 36" d="M15.371 7.456a5.05 5.05 0 0 0-2.391.6.932.932 0 0 0-.871-.6H8.382a.932.932 0 0 0-.932.932v11.178a.932.932 0 0 0 .932.932h3.727a.932.932 0 0 0 .932-.932v-5.121a.932.932 0 1 1 1.864 0v5.121a.932.932 0 0 0 .932.932h3.727a.932.932 0 0 0 .932-.932v-6.985a5.132 5.132 0 0 0-5.125-5.125zm3.261 11.182h-1.863v-4.193a2.8 2.8 0 1 0-5.591 0v4.193H9.314V9.32h1.864v.655a.932.932 0 0 0 1.66.582 3.246 3.246 0 0 1 5.8 2.025zM5.587 7.456H1.856a.932.932 0 0 0-.932.932v11.178a.932.932 0 0 0 .932.932h3.731a.932.932 0 0 0 .932-.932V8.388a.932.932 0 0 0-.932-.932zm-.931 11.182H2.791V9.32h1.865zM3.737.508a3.013 3.013 0 1 0-.053 6.017h.026A3.013 3.013 0 1 0 3.737.508zM3.71 4.661h-.026a1.139 1.139 0 0 1-1.276-1.144c0-.7.522-1.145 1.33-1.145a1.15 1.15 0 0 1 1.3 1.145c0 .7-.522 1.144-1.328 1.144z" fill="#111" stroke="#fff"/></svg>