<svg xmlns="http://www.w3.org/2000/svg" width="1922" height="560" viewBox="0 0 1922 560"><defs><style>.a,.g{fill:#01002d}.b{opacity:.142;clip-path:url(#a)}.c,.d,.e,.f{fill:none;stroke-miterlimit:10}.c{stroke:#5be7c3}.c,.d,.e,.f,.g{stroke-width:3px}.d{stroke:#5acef2}.e{stroke:#ff8062}.f{stroke:#f1b170}.g{stroke:#707070}</style><clipPath id="a"><path class="a" transform="translate(5774 2711)" d="M0 0h1922v560H0z"/></clipPath></defs><g class="b"><path class="c" d="M712.253 172.157c-.15-15.219-59.963-32.334-85.513-41.159-50.519-17.452-103.061-33.568-155.116-49.942s-104.251-32.7-153.89-50.679c-32.229-11.669-70.1-24.811-91.959-41.473-46.566-35.508 100.25-30.235 138.281-31.012 96.747-1.984 207.715-1.078 298.4-19.569 54.135-11.039 75.722-29.552 64.1-56.533-3.749-8.775-14.841-18.872-5.443-27.421 10.034-9.13 33.12-14.4 52.28-17.932 69.885-12.871 150.235-14.363 224.177-15.979 79.733-1.776 160.214-1.256 239.384-1.394 33.57-.058 68.629-5.77 100.6-10.413 41.9-6.084 83.308-12.918 124.869-19.528 91.434-14.5 185.657-29.782 282.388-33.465 60.581-2.308 126.794.812 173.854 20.888 23.629 10.077 36 25.064 49.657 38.375 16.537 16.081 32.417 32.317 50.022 48.145 56.712 50.976 137.681 100.79 269.1 103.293 19.882.377 39.407-.852 59.2-1.083 12.6-.142 23.816 1.3 28.5 7.544 11.779 15.662-25.238 40.389-40.415 52.813-33.232 27.2-70.709 53.189-105.812 79.844-23.226 17.63-63.429 41.722-63.851 63.142-.375 19.085 53.217 32.881 82.393 42.281 27.339 8.8 76.875 21.119 79.873 39.023 1.452 8.682-10.634 15.876-23.255 21.46-22.121 9.765-47.6 16.652-67.5 27.794-32.632 18.278-59.9 43.426-55.465 68.056 3.073 17.066 23.629 28.242 49.779 38.926 10.989 4.492 19.91 7.67 20.49 14.962.937 11.58-8.639 23.835-16.524 34.572-28.221 38.423-68.3 75.579-112.894 110.27-22.28 17.337-46.349 34.62-75.89 49.409-19.357 9.716-45.45 21.274-74.957 21.261-34.169 0-70.325-5.841-103.539-10.209-62.04-8.162-123.324-17.6-184.364-27.279q-211.744-33.6-419.506-72.632c-97.561-18.362-197.194-36.752-288.918-61.164a438.969 438.969 0 0 1-50.424-16.693c-16.725-6.628-37.477-9.592-58.52-11.8-130.607-13.72-273.7-3.187-404.844 3.418-33.289 1.673-66.577 3.356-99.96 4.527-28.7 1.008-63.056 3.9-90.947-.444-54.96-8.544-6.914-40.035 13.4-52.865 71.514-45.18 163.784-83.4 249.306-122.427 40.663-18.584 81.634-37.119 120.086-56.755 20.018-10.211 59.498-26.811 59.367-40.153z"/><path class="d" d="M736.897 169.591c-21.921-16.1-60.38-28.008-92.3-39.21-45.941-16.127-93.326-31.358-140-47.028-44.131-14.82-88.356-29.8-129.224-46.632-24.92-10.262-56.188-22.533-67.992-37.711-25.6-32.9 112.142-27.906 146.147-28.767 84.54-2.13 180.38-2.617 258.6-19.939 48.837-10.816 68.9-28.753 58.485-53.655-3.6-8.616-10.088-15.972-1.875-24.543 9.5-9.92 31.343-16.1 51.369-20.47 62.732-13.678 136.884-16.584 204.885-19 70.251-2.5 143.443-4.257 211.439-2.432 27.189.727 58.485-3.4 85.4-6.571 41.4-4.88 82.383-10.508 123.586-15.745 83.725-10.648 169.624-20.9 256.724-22.072 62.882-.843 128.446 3.727 180.762 21.389 53.019 17.91 76.543 45.674 105.951 72.067C2039.632-75.1 2108.214-19.621 2225.69-9.98c17.813 1.464 34.933.67 52.728 1.029 9.151.182 19.567.759 24.208 5.031 12.048 11.092-20.968 31.367-32.077 39.867-30.7 23.478-65.208 45.806-97.375 68.833-25.55 18.283-57.931 38.6-67.814 60.27-11.992 26.3 66.36 45.013 93.916 63.531 47.768 32.112-42.734 50.408-87.353 65.718-51.24 17.578-93.531 49.645-47.6 76.841 17.57 10.4 39.191 16.6 47.038 30.168 12.273 21.224 2.991 45.479-6.967 66.459-15 31.539-38.742 62.737-71.011 91.242-23.12 20.409-61.476 52.41-117.646 50.01-37.812-1.6-76.251-7.453-113.07-12.626-55.128-7.746-109.561-16.566-163.708-25.732-125-21.1-248.608-44.363-369.785-69.953-82.686-17.467-313.326-88.847-330.681-91.393-51.744-7.587-110.576-6.251-163.924-5.075-70.958 1.563-141.572 5.608-212.124 9.357-33.584 1.775-67.336 3.944-101.091 4.818-24.023.621-55.587 1.154-76.636-5.461-41.083-12.906 4.688-42.436 23.618-54.929 57.988-38.3 131.343-71.468 200.122-105.381 33.753-16.652 68.02-33.274 98.659-51.26 12.352-7.263 43.329-21.846 29.78-31.793z"/><path class="c" d="M749.239 166.734c-59.864-32.226-137.59-56.523-208.9-83.438-35.791-13.513-58.72-32.472-89.59-48.566-16.058-8.37-36.1-18.954-39.2-30.621-8.268-31.211 115.885-26.99 153.044-28.175 71.844-2.3 153.007-4.042 218.185-19.97 39.823-9.737 59.433-25.717 51.99-46.722-3.3-9.32-8.437-17.237 0-26.387 8.55-9.269 26.36-15.812 44.4-20.716 51.83-14.1 116.24-18.612 174.6-21.972 68.3-3.909 137.357-5.439 206.356-4.571 60.37.75 120.45-7.686 179.395-13.247 78.087-7.362 157.591-13.792 237.5-12.821 63.108.772 126.712 6.839 180.658 22.961 54.821 16.42 87.781 41 117.5 67.516C2020.08-59.899 2076.06-6.178 2174.614 9.048c14.333 2.219 27.692 2.463 42.475 2.849 7.181.186 16.452.244 20.014 3.79 8.572 8.539-23.1 25.092-31.944 30.859-28.217 18.419-58.8 36.006-87.724 54.179-27 16.965-56.405 34.646-73.18 54.527-26.689 31.664 58.635 50.178 56.239 80.349-1.49 18.732-39.371 32.165-69.369 41.458-36.937 11.427-90.121 18.94-108.6 39.793-13.771 15.532 7.837 24.574 24.476 36.359 28.2 19.97 30.119 47.04 27.185 70.157-3.956 31.237-19.414 62.937-45.727 91.649-11.914 13.018-26.518 26.556-48.018 36.667-20.15 9.475-39.217 11.9-66.14 9.963-82.418-5.947-165.633-22.522-244.673-37.326-99.3-18.6-197.234-39.141-292.243-62.249-64.786-15.759-131.033-32.431-187.9-54.2-14.821-5.676-29.994-11.844-40.835-19.331-8.193-5.627-11.664-10.273-25.48-13.486-40.928-9.519-97.858-7.029-141.711-6.04-70.125 1.575-139.9 5.769-209.59 9.546-40.666 2.219-117.272 9.2-149.745-7.545-28.029-14.458 5.793-39.11 23.071-51.847 43.7-32.21 99.92-60.478 152.079-89.585 23.905-13.34 30.756-21.379 50.5-36.209 2.355-1.766 5.373-3.8 8.211-6.053 2.92-2.317 5.561-4.884 6.3-7.332 1.569-5.266-5.697-9.282-13.046-13.256z"/><path class="d" d="M772.371 168.833c-55.317-28.495-121.959-51.9-181.344-78.57-26.627-11.956-53.516-24.5-73.8-39.083-10.913-7.843-22.5-17.716-19.492-27.465 8.635-27.98 110.746-25.452 152-27.091 61.3-2.406 131.717-4.831 185.921-19.92 35.505-9.882 48.819-24.475 42.19-43.3-7.117-20.19 8.794-34.846 45-46.109 45.4-14.11 102.7-19.861 155.411-23.947 63.241-4.889 127.675-7.064 192.142-6.486 62.564.568 123.178-4.4 185.328-7.625 82.4-4.277 167.45-6.386 248.924 2.38 70.936 7.635 135.009 24.458 183.041 50.474 50.169 27.154 75.006 61.364 115.742 91.4 25.412 18.737 60.839 43.524 108.312 50.807 15.83 2.429 44.694-.848 32.046 11.1-7.229 6.835-20.758 12.831-31.446 18.418-17.27 9.029-35.112 17.809-52.673 26.714-37.427 18.982-77.508 38.369-105.561 60.844-35.346 28.3 17.2 50.079 10.791 78.774-3.441 15.442-26.106 27.766-50.094 37.448-15.516 6.271-32.493 11.7-49.832 16.77-18.1 5.3-39.523 9.329-55.308 16.173-22.5 9.739-12.732 21.269-8.514 33.86a131.43 131.43 0 0 1 4.86 66.92c-5.138 27.353-17.185 55.488-42.565 80.346-9.873 9.677-22.38 19.939-40.953 26.425s-37.789 6.054-59.069 4.1c-63.126-5.774-126.122-19.208-186-31.941-74.953-15.94-148.43-33.754-218.598-54.019-48.435-13.99-97.029-29.1-137.55-48.069-11.785-5.52-23-11.432-32.064-18.031-6.225-4.527-9.563-10.366-18.582-13.768-28.221-10.619-84.877-7.448-117.974-6.83-66.052 1.23-131.063 7.079-197.03 8.5-36 .777-92.387 2.731-118.827-11.787-24.865-13.648-2.344-35.143 12.517-48.293 29.205-25.857 68.442-48.893 103.61-72.929 14.457-9.891 30.3-20.239 39.669-31.533 8.32-10.066-6.054-17.351-20.228-24.657z"/><path class="e" d="M785.976 169.3c-44.03-25.075-97.11-47.333-141.458-72.816-25.959-14.923-70.664-40.011-50.588-61.05 22.025-23.118 98.8-23.748 143.172-25.611C789.919 7.605 851.94 4.576 897.146-9.859c14.3-4.563 26.474-10.6 31.637-18.56 5.527-8.514-.515-15.965-1.3-24.489-1.648-17.881 20.89-32.237 50.719-42.1 42.157-13.938 94.871-20.529 144.663-25.123 56.091-5.168 113.566-7.729 171.216-7.628 54.915.089 109.25-.488 164.223-1.153 71.891-.887 144.793.545 214.529 9.588 68.7 8.914 131.153 25.62 180.214 50.194 47.861 23.981 80.153 53.289 108.435 83.144 16.044 16.948 43.155 42.271 81.432 50.831 17.03 3.811 33.736 3.549 15.634 13.457-22.793 12.475-53.51 22.485-79.91 33.155-38.081 15.4-77.118 31.1-109.082 49.4-20.413 11.69-29.509 23.034-28.1 38.171 1.087 11.532 6.014 22.941 3.523 34.517-5.832 27.168-51.019 45.8-90.964 63.147-25.7 11.158-49.164 19.67-62.392 35.541-15.644 18.759-22.218 39.168-32.667 58.646-11.485 21.389-24.751 43.639-49.819 62.478-22.321 16.776-49.466 24.297-90.079 19.776-63.357-7.043-125.808-24.391-182.047-40.441-57.248-16.328-113.513-34.689-160.954-57.134-25.613-12.12-43.093-26.352-65.84-39.373-28.605-16.347-93.334-10.156-131.8-8.772-63.853 2.3-264.77 19.487-246.231-36.188 7.739-23.239 38.212-44.685 60.5-65.192 9.237-8.51 22.605-18.724 24.694-28.476 2.274-10.62-18.168-20.707-31.404-28.257z"/><path class="f" d="M809.223 171.429c-33.647-22.722-73.914-44.189-102.785-68.731-18.73-15.894-37.122-37.13-12.96-53.947 27.27-18.978 87.4-23.4 131.582-25.82 45.521-2.489 99.863-4.584 137.07-18.973 11.836-4.583 21.594-10.764 23.412-18.165 1.751-7.1-3.194-14.2-1.555-21.427 3.671-16.231 24.451-29.6 51.24-39.3 79.252-28.695 197.208-35.076 292.83-35.826 47.863-.373 97.119 1.584 145.292 2.986 62.508 1.819 125.114 5.724 184.725 15.135 126.75 20 211.7 64.365 271.039 119.568 18.675 17.376 32.963 36.176 62.228 50.14 15.086 7.21 11.789 12.389-3.634 18.964-24.113 10.277-53.528 18.13-80.292 26.707-38.067 12.2-76.948 24.577-110.614 39.189-23.205 10.072-39.678 19.777-44.679 34.88-3.567 10.769-2.734 21.742-4.88 32.578-4.083 20.586-18.064 41.012-42.815 58.087-19.665 13.533-43.077 25.833-67.275 37.561-31.584 15.157-59.042 31.544-81.95 48.896-31.67 23.988-76.171 68.235-150.768 56.525-82.277-12.921-159.395-45.752-212.18-77.564-17.727-10.68-32.28-23.779-56.187-31.655-35.791-11.772-72.108-11.359-114.678-11.31-63.737.067-202.425 6.62-203.923-38.6-.59-17.917 15.779-34.858 23.618-52.092 8.836-19.302-8.881-32.321-31.861-47.806z"/><path class="c" d="M834.283 173.455c-33.281-29.615-107.917-78.278-51.15-111.21 29.983-17.406 83.015-23.944 127.5-27.841 35.8-3.152 78.977-4.336 106.027-17.7 19.882-9.826 11.056-24.126 18.674-36.426 9.454-15.251 31.155-27.726 57.82-37.1 74.517-26.21 178.128-34.253 267.768-35.965 93.1-1.773 195.677 6.521 283.285 22.48 109.234 19.9 191.069 57.594 248.3 105.324 10.553 8.81 20.154 17.851 30.293 26.768 6.814 5.976 16.915 11.764 22.285 18.056 8.938 10.491-1.593 19.066-18.477 25.9-24.287 9.843-54.12 16.85-81.807 24.237-37.863 10.11-76.569 20.038-111.79 31.9-23.668 7.983-48.442 16.583-56.913 30.429-5.781 9.445-6.981 19.448-6.774 29.229.45 20.973-1.875 37.933-22.544 57.141-34.012 31.535-86.314 59.891-141.567 83.484-43.363 18.517-111.977 47.281-175.158 34.9-56.687-11.085-89.843-37.618-127.2-59.07a305.584 305.584 0 0 0-62.524-27.371c-30.218-9.351-58.665-13.276-94.466-14.806-60.257-2.576-151.115-3.246-169.742-37.477-6.878-12.633-2.951-25.718-6.558-38.514-4.709-16.922-18.491-31.43-35.282-46.368z"/><path class="e" d="M868.889 174.552c-23.7-32.4-54.833-73.243 2.406-102.043 27.726-13.952 66.725-21.751 104.464-27.58 27.034-4.177 69.956-5.407 86.53-18.249 12.173-9.451 13.858-22.488 24.87-32.613 14.493-13.254 36.73-25.017 64.953-34.362 70.058-23.388 161.308-32.427 244.522-35.014 180.809-5.615 364.789 39.107 461.544 112.688 28.85 21.933 66.088 45.277 19.465 67.685-50.9 24.445-127.58 35.9-188.33 53.268-23.212 6.632-52.792 14.6-65.742 26.612-7.79 7.218-8.325 16.275-8.68 24.219-.936 20.237-4.485 38.437-21.662 57.32-26.536 29.182-68.851 56.1-116.8 78.157-41.819 19.229-101.455 41.828-162.186 27.965-46.566-10.653-76.1-33.266-112.279-49.934-40.27-18.564-90.06-31.073-144.743-37.184-53.195-5.928-111.54-9.93-139.575-35.126-9.616-8.643-19.664-19.831-23.269-29.4a188.457 188.457 0 0 0-25.478-46.41z"/><path class="f" d="M907.477 174.78c-10.972-32.721-12.182-66.843 38.757-92.631 23.774-12.031 53.827-20.579 84.216-28.324 22.357-5.7 45.449-10.5 62.149-19.847 15.472-8.65 27.232-18.693 42.169-27.569 18.957-11.44 42.537-21.622 69.824-30.156 66.534-20.544 147.47-30.152 224.9-33.485 37.484-1.62 78.144-2.463 115.376 1.953a929.364 929.364 0 0 1 104.571 18.853c70.28 16.683 131.192 41.114 175.348 72 30.272 21.187 46.649 41.788 7.44 63.282-44.2 24.228-113.511 37.595-170.635 53.319-39.18 10.784-83.092 21.356-90.411 44.274-5.832 18.236-10.56 35.544-25.639 52.782-22.437 25.427-55.437 48.459-97.025 67.731-38.037 17.557-86.156 32.455-140.564 23.075-43.106-7.44-76.548-24.113-114.213-36.034-41.972-13.314-88.087-20.655-136.648-26.557-43.639-5.326-84.731-13.509-112.938-30.884a119.409 119.409 0 0 1-16.287-11.388c-5.68-5.066-5.238-10.092-6.353-15.773-2.909-14.993-9.074-29.811-14.037-44.621z"/><path class="c" d="M950.023 172.108c.937-31.081 16.719-60.455 59.946-84.676 18.48-10.362 40.547-18.9 60.882-28.392 16.373-7.652 31.846-14.766 50.673-21.074 44.659-14.936 80.956-34.263 128.416-47.564 63.355-17.781 135.928-27.609 207.937-31.539 35.162-1.92 71.486-2.592 107.062-.422 30.549 1.862 59.814 8.4 86.959 15.089 53.2 13.105 104.857 31.731 139.4 55.295 76.16 51.949-74 89.722-151.064 111.841-35.443 10.175-89.6 21.959-104.119 42.114-10.378 14.4-16.7 29.04-30.066 42.994-35.901 37.472-108.782 81.545-205.91 75.678-41.553-2.507-79.429-12.691-118.228-19.528-39.952-7.043-81.177-10.966-122.696-15.273-38.806-4.023-69.735-9.748-94.8-25.1-11.979-7.329-10.921-16.1-11.989-25.1a304.185 304.185 0 0 1-2.403-44.343z"/><path class="d" d="M988.765 168.125c15.6-46.914 73.552-98.13 158.765-125.375 100.226-32.049 208.811-59.039 328.565-66.8 55.521-3.6 116.341-5.367 168.729 6.4 39.871 8.947 86.184 22.323 108.127 41.13 53.684 46-65.723 82.627-133.754 103.91-36.626 11.458-83.249 22.623-110.854 39.355-16.016 9.7-24.192 22.534-37.123 33.189-39.185 32.285-103.692 58.331-184.042 62.985-37.151 2.151-74.568-.51-111.446-2.626-37.742-2.165-75.957-3.341-113.462-6.359-29.941-2.413-65.226-6.5-76.254-21.674-13.904-19.121-3.619-44.977 2.749-64.135z"/><path class="f" d="M1026.756 160.588c22.757-44.107 70.944-87.13 151.953-113.461 42.958-13.962 92.826-23.6 140.705-33.123 54.271-10.792 110.978-19.17 168.883-23.325 72.108-5.177 188.894-9.842 226.567 29.07 37.392 38.624-57.1 72.808-112.973 92.289-35.826 12.48-74.164 23.933-108.392 37.576-18.56 7.4-32.857 15.943-48.564 24.617-43.41 24.038-105.295 43.063-168.373 53.221-61.128 9.847-136.757 14.206-201.29 10.952-27.844-1.4-47.747-6.118-56.168-19.534-11.668-18.65-1.755-40.062 7.652-58.282z"/><path class="e" d="M1064.502 148.709c22.607-38.834 71.361-74.3 142.491-97.612 79.727-26.128 182.387-40.647 276.75-48.03 50.159-3.921 158.849-14.554 184.412 15.876s-48.344 60.417-90.88 76.926c-51.626 20.005-107.285 39.321-162.884 57.27-48.289 15.606-99.838 31.561-152.16 43.613-29.074 6.758-59.85 12.347-91.848 16.68-23.4 3.13-53.16 7.8-77.7 5.469-61.881-5.884-38.988-51.624-28.181-70.192z"/><path class="d" d="M1111.103 137.08c49.6-73.44 206.753-109.557 358.064-122.149 35.161-2.922 133.723-13.459 153.38 8.975 19.05 21.752-41.525 47.548-69.882 59.77-87.87 37.87-196.427 65.95-299.3 93.767-32.11 8.683-90.022 27.526-129.857 18.834-43.241-9.457-22.68-43.968-12.405-59.197z"/><path class="d" d="M1161.91 122.945c43.136-54.083 168.6-85.1 283.951-95.33 28.253-2.5 100.009-10.293 121.408 4.8 19.8 13.961-27.456 34.191-45.13 42.229-39.361 17.9-86.009 32.646-132.093 46.822-42.61 13.114-85.677 26.556-130.515 37.646-23.615 5.838-67.9 18.3-94.741 9.281-28.898-9.696-12.46-33.439-2.88-45.448z"/><path class="c" d="M1217.898 107.144c32.879-35.319 120.932-58.253 198.607-65.875 20.9-2.048 66.074-7.355 83.705 2.077 16.232 8.687-9.933 21.421-21.538 27.306-51.46 26.065-126.814 49.35-195.856 63.652-17.358 3.6-48.564 10.653-66.421 3.4-18.318-7.452-6.049-22.452 1.503-30.56z"/><path class="f" d="M1277.292 92.307c18.526-17.538 66.947-30.769 107.056-34.984 28.228-2.964 62.157-.4 37.558 14.863-24.44 15.154-69.785 28.989-108.214 35.123-29.325 4.678-52.308.063-36.4-15.002z"/><path class="e" d="M-225.035 213.776c-1.189-34.651-40.061-70.658-20.864-105.962 15.765-29 95.131-31.418 142.749-44.553 37.835-10.437 59.307-28.925 79.769-46.663 18.384-15.925 34.9-32.33 54.264-47.994 12.536-10.126 34.065-30.011 61.253-30.37 26.028-.346 49.9 15.149 65.015 24.309 19.718 11.94 37.19 24.668 56.332 36.8 32.259 20.461 70.958 35.606 115.284 49.94q75.652 24.466 153.8 47.258c38.355 11.22 76.981 22.357 113.855 34.687 23.119 7.737 74.165 22.251 74.4 36.514.112 6.806-13.5 14.345-22.679 19.783-15.53 9.209-33.232 17.628-50.99 25.867-33.073 15.344-67.549 29.993-101.646 44.819-44.269 19.24-86.548 38.165-125.458 60.012-40.227 22.611-78.665 45.964-117.885 69.004-26.561 15.606-53.095 33.132-91.407 42.709-47.986 11.97-87.374-.652-135.9-.8-41.746-.129-38.667-45.954-43.973-58.7-5.324-12.9-17.056-24.9-21.6-37.83-5.67-16.138-5.745-32.649-7.139-48.96-1.693-19.951-2.361-38.945-47.378-46.553-25.617-4.323-53.323-5.232-79.845-7.821-17.183-1.677-49.584-4.549-49.957-15.496z"/><path class="c" d="M-204.511 207.613c-4.375-29.046-30.227-66.218-5.781-96.2 20.886-25.621 86.205-28.942 130.188-42.4 36.309-11.1 52.473-29.266 70.622-47.112C5.079 7.585 19.2-6.868 35.728-20.725c12.181-10.213 30.781-27.454 56.108-29.568 22.773-1.9 47.188 13.321 59.969 21.065 18.646 11.3 34.594 23.582 51.068 35.6 28.943 21.113 58.587 40.1 100.94 55.61 42.55 15.574 89.1 27.223 136.148 39.346 36.805 9.485 73.424 19.244 108.394 30.194 26.05 8.154 63.502 18.589 75.42 33.127 9.443 11.5-38.417 30.585-52.528 37.32-29.047 13.85-59.828 26.85-90.665 39.77-37.593 15.746-76.383 29.515-109.583 47.477-59.378 32.111-109.011 72.1-185.416 95.97-46.084 14.39-97.364 18.075-148.619 15.921-20.3-.853-25.169-14.427-27.726-22.344-4.255-13.152-4.788-26.531-8.054-39.736-3.065-12.362-9.866-24.106-15.348-36.228-5.547-12.282-7.1-24.866-11.188-37.232-2.53-7.677-5.032-16.611-16.1-22.783-11.451-6.39-30.34-9.067-46.85-11.1-31.008-3.783-113.118-3.574-116.209-24.071z"/><path class="d" d="M-178.098 195.453c-7.36-26.66-17.662-59.866 12.318-84.428 24.506-20.084 76.769-24.416 114.1-37.5 31.049-10.882 42.778-28.19 58.183-44.274 12.646-13.193 25.359-26.443 40.686-39C58.813-19.27 73.795-32.179 96.875-35.5c19.734-2.838 42.028 9.876 52.967 16.2 18.628 10.785 33.815 22.868 48.9 34.793 24.674 19.512 47.379 40.354 82.5 56.225 34.124 15.4 74.66 24.492 115.956 34.713 31.63 7.831 63.064 15.964 92.866 25.3 22.884 7.167 51.24 15.658 63.166 27.583 10.312 10.284-16.162 22.456-29.39 29.711-21.843 11.973-46.087 22.957-69.986 33.986-25.8 11.9-54.374 22.873-79.338 35.064-52.5 25.651-94.441 54.056-159.146 73.71-41.9 12.731-98.293 24.3-147.829 22.216-35.623-1.5-33.281-38.846-36.7-50.779a140.287 140.287 0 0 0-33.743-57.985c-14.822-15.4-50.043-20.15-82.442-23.6-20.3-2.169-41.568-3.341-61.2-6.691-22.733-3.882-28.47-8.317-31.554-19.493z"/><path class="f" d="M-153.458 182.958c-4.381-22.54-3.4-49.193 24.987-68.691 24.874-17.078 69.16-21.575 100.658-35.028 24.578-10.5 34.238-27.61 47.457-41.49 16.156-16.971 38.8-48.317 79.556-54.7 37.909-5.938 77.566 31.991 91.294 43.3 21.73 17.9 39.9 37.532 66.26 54.063 22.7 14.232 53.106 22.1 85.383 30.555 41.153 10.8 103.632 23.6 125.635 44.648 16.4 15.682-36.937 39-55.142 49.86-19.048 11.35-33.393 24.8-53.045 35.753-31.023 17.276-81.283 31.188-122.783 41.808-40.353 10.322-92.745 21.752-138.514 21.071-30.081-.445-35.8-22.451-42.222-33.2-9.2-15.281-21.421-28.975-47.683-39.369-26.731-10.581-58.238-15.566-91.359-19.929-17-2.223-36.4-3.958-51.6-8.45-16.811-4.888-17.195-11.537-18.882-20.201z"/><path class="e" d="M-123.439 169.966c.243-19.473 9.642-40.237 37.512-55.258 23.212-12.511 59.546-16.693 81.767-29.483 17.6-10.126 26.56-24.341 38.344-36.1 14.412-14.41 34.79-39.583 70.629-44.584 34.978-4.868 65.915 22.858 79.326 33.83 19.639 16.087 35.539 33.139 55.356 49.182 15.525 12.586 34.51 20.7 59.789 28.811 29.674 9.527 71.076 20.083 86.926 35.844 11.428 11.417-16.236 29.654-26.281 39.71-6.733 6.753-12.9 13.613-16.283 20.933-2.638 5.7-2.9 10.976-10.54 15.87-19.234 12.31-61.413 13.918-90.031 17.976-38.005 5.386-78.333 11.511-118.108 12.675-24.446.73-36.923-9.94-50.876-17.446-16.488-8.873-39.831-15.255-60.22-21.951-26.907-8.851-56.189-14.357-86.481-19.993-13.664-2.545-29.716-5.041-40.3-10.1-11.053-5.245-10.613-12.888-10.529-19.916z"/><path class="d" d="M-91.909 158.402c4.831-16.354 19.885-31.985 45.312-43.547 19.492-8.876 45.377-13.874 61.02-24.538 14.58-9.941 24.734-21.245 36.773-31.874 12.742-11.238 31.671-30.02 61.057-33.077 31.671-3.293 56.068 15.653 69.578 26.154 17.066 13.27 30.033 27.547 45.292 41.274 11.117 9.991 25.758 19.333 43.5 27.76 18.191 8.617 42.859 16.871 52.062 28.713 8.136 10.492-7.081 23.185-9.774 33.823-2.874 11.366 2.162 23.3-13.771 33.064-32.856 20.127-115.324 16.395-162.47 16.825-46.516.444-83.916-11.871-121.563-23.588-24.865-7.736-50.759-14.289-76.253-21.489-25.988-7.359-35.012-15.1-30.763-29.5z"/><path class="d" d="M-62.614 149.047c14.286-23.693 58.9-36.286 90.8-54.19 26.1-14.658 45.666-45.014 89.618-49.03 49.9-4.557 79.773 35.664 97.122 51.183 19.25 17.209 53.534 31.21 67.791 49.431 7.498 9.563 1.059 18.487-2.932 28.046-4.374 10.5-7.661 21.23-22.762 29.678-29.724 16.626-87.768 16.51-129.581 16.968-43.277.475-81.566-10.918-116.045-22.286-36.57-12.046-88.643-25.5-74.011-49.8z"/><path class="e" d="M-38.688 142.621c16.1-16.88 49.923-30.6 77.372-43.559 22.912-10.8 47.556-32.542 82.483-34.092 41.056-1.827 65.937 21.388 82.09 35.626 15.9 13.987 38.809 28.757 47.613 44.109 9.179 15.993-15.268 37.534-38.582 48.851-26.005 12.613-68.549 17.28-105.056 16.777-38.223-.512-73.3-10.94-102.243-21.759-30.948-11.565-62.397-26.357-43.677-45.953z"/><path class="d" d="M-16.486 139.443c15.376-14.04 42.029-25.917 66.6-36.511 18.966-8.179 46.95-22.087 74.311-22.427 30.1-.377 55.611 11.3 67.577 23.263 11.8 11.801 24.229 26.601 25.993 39.545 3.836 28.195-74.233 59.781-132.856 57.209-55.579-2.44-132.283-33.103-101.625-61.079z"/><path class="c" d="M4.047 137.895c21.212-18.293 72.738-44.372 120.438-44.992 54.752-.708 68.5 28.313 61.36 49.345-7.25 21.465-70.376 52.534-120.71 48.336-49.128-4.096-86.227-30.994-61.088-52.689z"/><path class="e" d="M25.725 134.936c17.954-15.315 56.283-34.446 96.254-35.027 47.631-.684 46.73 23.82 35.931 39.067-11.231 15.834-60.694 42.879-102.396 38.609-40.552-4.168-46.999-27.968-29.789-42.649z"/><path class="d" d="M44.607 133.174c11.855-10.929 41.52-24.742 69.73-25.184 34.475-.531 27.772 18.903 18.865 28.282-10.588 11.161-46.077 30.552-75.858 27.412-29.322-3.094-22.518-21.505-12.737-30.51z"/><path class="e" d="M1666.359 757.619c-76.307 21.927-162.569 40.027-243.915 58.424-118.876 26.879-239.5 53.039-364.412 73.062-66.966 10.734-153.747 26.208-225.603 17.8-26.273-3.072-50.232-12.37-73.787-18.41-32.482-8.329-65.442-16.246-98.345-24.18-66-15.9-132.214-31.649-197.084-48.574-31.237-8.152-61.546-18.419-94.064-25.373-19-4.067-41.746-2.164-62.052-1.907-47.038.6-94.047 1.734-141.055 2.7-57.5 1.18-115.13 2.435-172.695 1.969-25.967-.216-89.55 1.969-103.843-8.622-7.69-5.7 10.434-15.988 18.835-20.747 15.426-8.746 33.156-16.627 50.653-24.428 40.461-18.042 83.435-35.224 119.4-55.377 18.48-10.36 42.692-23.018 30.627-37.162-12.177-14.285-33.268-26.655-46.138-40.892-14.818-16.382-20.968-33.432-27.958-50.8-5.18-12.84-17.244-24.216-28.586-36.052-12.532-13.084-25.513-26.278-34.216-40.076-5.75-9.114-15.033-25.511 5.086-31.281 28.586-8.205 82.189-1.563 114.774.856 45.033 3.335 89.738 7.584 134.65 11.243 32.6 2.661 65.32 5.579 98.468 5.89 53.434.5 107.047-1.233 160.34-2.848 98.683-2.989 196.658-7.043 295.673-7.043 86.748 0 287.215 47.53 334.14 55.9 93.662 16.702 189.814 32.541 278.449 54.77 23.977 6.018 60.881 14.037 73.5 26.425 7.783 7.633 4.206 12.046 22.563 16.964 25.045 6.71 57.134 9.345 84.858 12.348 44.649 4.834 89.645 8.928 134.5 13.305 90.718 8.83 180.822 18.818 271.162 28.428 27.311 2.905 60.356 3.548 86.394 8.666 16.784 3.287 15.043 7.424 2.051 12.418-22.788 8.764-54.727 13.629-81.65 18.627-39.437 7.322-79.528 13.855-119.634 20.3s-80.419 12.68-120.544 19.131c-26.499 4.249-56.724 7.702-80.542 14.546z"/><path class="c" d="M1603.565 752.795c-80.717 21.972-170.315 39.475-256.69 56.553-110.544 21.87-223.591 42.367-340.071 56.038-68.384 8.021-149.077 16.877-218.95 7.679-24.928-3.282-43.552-10.659-64.922-17.171-24.358-7.431-49.651-14.239-74.946-20.941q-78.102-20.694-157.854-39.974c-28.161-6.835-59.155-15.989-90.975-18.361-25.295-1.886-54.027.844-79.429 1.639-45.755 1.43-91.5 2.9-137.272 4.157-52.819 1.444-105.786 2.776-158.718 2.545-29.5-.129-80.145 2-101.009-7.031-18.2-7.879 48.068-36.375 59.723-41.789 36.4-16.9 74.674-33 108.55-51.077 20.02-10.659 44.4-23.624 52.837-37.753 7.185-12.041-6.679-25.759-14.868-36.891-10.24-13.942-18.5-28.394-30.4-42.043-10.6-12.161-27.458-22.993-42.269-34.048-16.291-12.161-32.789-24.52-44.883-37.788-7.41-8.163-19.674-21.834-4.946-29.615 17.013-8.971 69.455-3.109 91.012-1.832 43.732 2.629 87.124 6.538 130.556 10.038 72.135 5.809 140.908 10.891 214.364 9.674 95.659-1.59 191.224-5.33 286.865-7.4 35.318-.773 71.2-2.327 106.545-1.488 20.264.485 35.687 3.416 47.478 10.029 16.094 9.025 53.164 14.021 78.947 19.2 40.2 8.07 80.9 15.574 121.5 23.18 89.111 16.7 179.936 32.8 264.447 54.395 26.736 6.831 57.35 14.448 77.129 25.734 11.035 6.294 8.254 12.356 14.989 19.045 8.919 8.8 38.241 12.772 55.769 15.647 33.829 5.561 69.044 9.287 103.987 12.778 79.067 7.9 158.324 13.089 238.674 16.913 18.83.888 92.98 3.966 54.036 18.8-43.042 16.4-105.172 24.427-155.826 33.668-45.625 8.307-91.298 16.035-133.38 27.49z"/><path class="d" d="M1492.017 748.732c-75.874 19.33-159.92 33.751-241.633 47.546-99.156 16.74-200.793 31.662-304.8 40.021-65.324 5.246-137.35 9.278-202.241.559-44.312-5.951-78.6-22.041-117.51-33.108s-79.416-21.459-121.121-30.119c-25.884-5.374-53.728-10.789-82.529-10.077-70.028 1.721-139.972 5.82-210.074 7.814-46.38 1.331-92.845 2.425-139.361 2.1-28.05-.2-66.587.6-91.42-6.386-27.45-7.729 118.711-73.723 132.525-81.151 34.635-18.625 76.574-43.343 69.878-69.83-6.406-25.321-34.16-44.225-65.563-64.065-17.819-11.286-74.961-41.436-53.785-56.114 12.1-8.39 51.974-5.485 70.919-4.914 37.336 1.126 74.464 3.548 111.6 5.65 54.156 3.046 109.792 7.751 164.177 9.13 37.87.958 75.964-.323 113.9-.35q81.592-.053 163.183.39c45.673.2 91.729 0 137.242 2.075 28.294 1.277 49.771 4.146 70.065 12.252 17.659 7.051 44.3 11.179 66.812 15.663 37.176 7.4 74.839 14.261 112.38 21.232 78.6 14.6 158.1 28.891 233.332 47.134 34.343 8.324 92.086 19.977 100.141 40.159 2.908 7.275 5.046 10.421 20.05 14.558 21.3 5.874 46.807 8.519 70.7 10.82 55.707 5.366 113.033 4.563 168.641 9.867 22.648 2.186 52.212 6.9 26.363 17.707-30.17 12.634-74.089 19.578-110.232 27.383-18.044 3.894-36.632 7.539-53.766 12.293-13.152 3.659-24.415 8.357-37.873 11.761z"/><path class="f" d="M1348.316 742.696c-70.1 15.7-146.221 27.115-220.979 37.406-83.039 11.414-168.075 20.869-254.238 24.892-59.5 2.787-122.892 3.611-180.632-4.921-36.52-5.4-61.275-16.744-92.7-26.261-47.427-14.384-98.738-25.782-155.715-23.008q-95.814 4.654-192.261 6.983c-38.784.938-77.718 1.64-116.547.987-24.551-.409-56.181-1.1-77.539-6.365-28.578-7.054 78.766-60.733 92.147-68.556 33.188-19.4 57.511-39.761 71.724-63.8 11.592-19.616-12.088-35.036-36.52-49.71-15.187-9.113-64.262-32.031-48.9-43.866 8.428-6.525 36.2-6.188 51.115-6.521 28.427-.631 56.977.026 85.4.316 41.976.445 86.659-2.609 128.28-.151 92.24 5.443 184.245 10.153 277.057 13.882 51.167 2.053 102.64 3.92 153.34 7.881 18.2 1.423 37.005 2.929 54.252 6.148 11.1 2.067 17.145 5.587 26.509 8.477 44.645 13.753 102.924 20.83 153.205 29.644 66.846 11.717 134.048 23.252 199.114 37.094 34.224 7.281 82.024 15.647 105.573 30.507 7.117 4.49 4.083 8.083 8.558 12.4 5.15 4.978 20.8 6.463 30.9 7.85 22.932 3.151 118.916 7.917 74.684 26.406-21.107 8.806-48 14.455-71.791 21.376-8.609 2.507-17.013 5.027-24.2 8.41-11.998 5.668-23.834 8.904-39.836 12.5z"/><path class="e" d="M1195.202 735.897c-138.377 25.403-300.548 42.707-451.414 39.355-50.169-1.119-104.146-4.854-147.638-17.634-25.643-7.549-46.138-16.071-76.939-18.8-22.237-1.967-46.182.266-68.55 1.075q-48.6 1.758-97.262 3.068c-40.224 1.035-80.58 1.832-120.879 1.408-28.8-.307-68.56.04-93.574-7.287-29.865-8.739 46.153-49.735 56.85-57.04 25.925-17.706 44.1-34.859 50.666-56.2 1.933-6.217 8.444-12.589 7.6-18.855-.882-6.4-9.205-12.1-16.888-17.128-10.049-6.594-44.916-22.234-34.932-30.277 5.517-4.44 26.225-5 36.959-5.942 20.135-1.778 40.561-2.731 60.821-4.143 34.37-2.407 68.495-10.244 102.985-10.023 92.748.586 186.839 14.21 277.73 21.693 54.035 4.463 108.437 8.514 161.815 14.557 16.89 1.914 34.285 3.895 50.339 7.14 11.2 2.263 18.4 6.3 28.778 8.838 39.792 9.738 85.552 15.649 128.281 22.2 55.471 8.526 111.129 16.795 166.217 25.871 34.528 5.694 78.926 10.701 108.679 21.252 21.73 7.706 6.878 10.009-4.582 17.185-5.854 3.659-4.5 7.265-7.046 11.408-3.637 5.917-13.906 10.175-23.531 14.005-13.277 5.289-30.966 9.644-41.819 16.129-3.828 2.283-3.649 5.116-6.746 7.105-9.008 5.793-32.909 8.653-45.92 11.04z"/><path class="f" d="M1048.079 726.85c-112.311 15.973-237.271 25.063-355.985 20.843-41.3-1.47-82.861-4.886-121.337-12.389-17.5-3.4-30.645-7.2-49.828-7.4-44.508-.471-89.149 1.177-133.654 1.572-31.845.285-63.848.386-95.618-.826-21.246-.808-49.968-1.778-67.37-7.947-25.293-8.987 20.361-39.536 29.652-47.98 15.4-14 30.674-29.558 24.567-45.752-1.873-4.953-5.189-9.329-5.62-14.379-.417-4.34.74-8.347-2.511-12.5-4.019-5.144-21.889-13.126-15.744-17.862 4.187-3.233 16.606-3.385 24.867-4.419 13.55-1.7 26.648-3.908 39.113-6.583 13.3-2.861 24.623-7.28 38.4-9.646 22.366-3.829 47.4-4.189 70.911-4.171 93.8.071 188.791 8.838 280.215 18 47.607 4.771 95.478 9.857 141.747 17.094 14.049 2.2 29.972 4.407 42.325 8.467 7.708 2.527 12.935 5.695 21.692 7.6 74.808 16.235 161.293 22.263 240.708 33.986 20.67 3.052 135.227 18.471 75.33 32.975-36.381 8.813-74.835 12.82-108.034 24.876-10.111 3.664-16.859 6.699-20.811 12.292-2.6 3.723 3.662 1.832-5.085 5.726-10.615 4.674-34.85 6.561-47.93 8.423z"/><path class="d" d="M931.304 717.406c-131.488 13.035-270.733 13.655-404.297 2.1-33.67-2.91-68.711-2.214-102.795-2.954-33.116-.709-91.994.766-116.047-11.294-17.441-8.743 1.484-27.322 8.03-37.1 8.34-12.459 15.629-25.328 1.934-37.43-8.021-7.086-19.01-13.832-27.612-20.852-4.113-3.353-12.585-8.491-9.054-11.666 5.842-5.24 33.172-7.445 46.434-9.916 42.386-7.9 87.27-9.913 132.587-9.86 83.7.1 167.834 5.523 249.94 12.875 37.77 3.384 76.075 6.994 112.507 12.875 20.615 3.326 35.826 9.744 55.507 13.549 63.386 12.259 131.488 18.809 195.963 30.019 18.662 3.247 88.37 14.054 53.254 26.797-34 12.335-83.594 10.869-118.94 22.472-4 1.329-8.951 2.919-11.27 5.066-1.371 1.284 1.043 3.729 0 4.46-10.849 7.945-49.457 9.207-66.141 10.859z"/><path class="d" d="M846.116 708.79c-67.458 4.382-136.398 5.47-204.991 5.746-37.494.151-78.687 1.282-115.373-3.215-22.536-2.77-44.3-5.192-67.532-6.938-24.995-1.879-65.241-3.246-80.462-13.431-11.371-7.611-3.577-23.255-3.165-32.509.438-10.149-3.953-17.671-19.08-24.938-9.512-4.574-53.146-21.175-48.1-25.962 4.8-4.56 35.2-5.259 48.349-6.444 41.55-3.759 83.654-5.066 125.918-4.863 65.456.311 131.157 3.474 195.591 8.906 26.639 2.258 54.17 4.6 79.616 9.107 17.137 3.042 31.428 8.434 48.451 11.578 48.748 9.019 100.293 15.145 149.22 24.324 15.701 2.953 66.857 10.812 54.593 22.921-10.226 10.113-45 13.188-62.094 19.969-29.071 11.564-63.871 13.345-100.941 15.749z"/><path class="e" d="M803.62 702.98a3081.787 3081.787 0 0 1-162.564 4.231c-35.041.04-72.009.266-106.4-3.465-17.273-1.872-32.282-6.251-48.629-9.373-16.833-3.211-40.063-6.8-47.339-14.159-6.836-6.92-4.283-17.016-10.287-25.359-5.339-7.4-16.515-11.976-28.551-16.98-7.668-3.2-47.049-17.042-42.491-20.1 4.882-3.274 28.532-3.008 40.839-3.46a2002.105 2002.105 0 0 1 101.935-1.211c46.4.674 93.163 2.555 138.763 6.813 32.355 3.018 56.747 10.2 86.906 15.472 39.071 6.844 79.547 12.256 118.244 19.743 19.279 3.733 47.821 8.532 57.7 18.162 3.8 3.69 7.482 13.077 3.255 16.767-5.078 4.436-23.979 6.316-32.9 7.457-22.349 2.845-45.739 4.228-68.481 5.462z"/><path class="f" d="M753.489 695.897c-66.892 3.565-142.472 6.591-209.568-.584-27.115-2.9-54.118-11.478-65.174-23.172-5.729-6.047-6.961-13.245-15.516-19.105-6.336-4.332-14.4-8.245-22.347-11.89-4.478-2.059-33.171-13.339-27.633-15.353 5.84-2.126 20.172-1.431 29.961-1.484q35.235-.158 70.362 1.141c26.872.97 54.379 2.228 80.439 5.633 21.022 2.763 40.178 8.579 60.649 12.033 53.815 9.145 110.527 16.312 161.052 29.856 10.749 2.879 32 7.189 19.091 13.7-16.063 8.102-60.65 8.129-81.316 9.225z"/><path class="c" d="M695.179 689.471c-47.629 2.496-100.472 3.669-148.293-1.471-24.217-2.6-45.824-8.024-56.368-18.518-7.547-7.48-9.581-15.827-19.9-23.014-3.651-2.536-17.066-9.653-10.453-11.206 14.151-3.341 45.737.5 65.369 2.257 29.547 2.656 54.217 10.091 82.311 14.5 43.094 6.758 97.7 10.37 136.971 21.89 37.854 11.136-35.74 14.832-49.637 15.562z"/><path class="g" d="M640.715 683.366c-40.409 2.246-112.29 3.355-135.346-14.712-4.278-3.355-16.09-21.874-4.675-23.528 9.408-1.357 24.173.884 34.8 2.979 19.772 3.876 38.326 8.1 58.758 11.3 17.4 2.722 35.21 5.233 52.378 8.4 7.288 1.329 20.983 2.94 25.557 5.962 12.3 8.133-19.168 8.919-31.472 9.599z"/></g></svg>