<svg xmlns="http://www.w3.org/2000/svg" width="15.631" height="15.659" viewBox="0 0 15.631 15.659"><defs><style>.a{fill:none;stroke:#666;stroke-linecap:round;stroke-linejoin:round}</style></defs><path class="a" d="M9.53 3.344A3.489 3.489 0 0 1 12.289 6.1M9.53.552a6.281 6.281 0 0 1 5.548 5.541m-.7 5.569v2.09a1.4 1.4 0 0 1-1.521 1.4 13.811 13.811 0 0 1-6.023-2.143 13.609 13.609 0 0 1-4.185-4.187A13.811 13.811 0 0 1 .507 2.771a1.4 1.4 0 0 1 1.388-1.519h2.094a1.4 1.4 0 0 1 1.4 1.2 8.961 8.961 0 0 0 .489 1.961 1.4 1.4 0 0 1-.319 1.471l-.886.886a11.166 11.166 0 0 0 4.187 4.187l.886-.886a1.4 1.4 0 0 1 1.473-.314 8.961 8.961 0 0 0 1.961.489 1.4 1.4 0 0 1 1.2 1.417z"/></svg>