<svg xmlns="http://www.w3.org/2000/svg" width="32.797" height="32.797" viewBox="0 0 32.797 32.797"><defs><style>.a{fill:#111;stroke:#d2e4fa}</style></defs><path class="a" d="M8.449 20.373a1.59 1.59 0 0 0-1.59 1.59v2.835a12.674 12.674 0 0 1-3.18-8.4 11.59 11.59 0 0 1 .083-1.4 1.59 1.59 0 1 0-3.154-.38 14.584 14.584 0 0 0-.108 1.78 15.841 15.841 0 0 0 3.843 10.334H2.09a1.59 1.59 0 1 0 0 3.18h6.359a1.561 1.561 0 0 0 1.262-.671c.017-.024.041-.043.059-.068s.011-.035.021-.051a1.536 1.536 0 0 0 .169-.41 1.513 1.513 0 0 0 .051-.248 1.31 1.31 0 0 0 .029-.142v-6.359a1.59 1.59 0 0 0-1.59-1.59zm2.385-13.514H7.999a12.677 12.677 0 0 1 8.4-3.18 11.248 11.248 0 0 1 1.4.084 1.591 1.591 0 0 0 .382-3.159 14.67 14.67 0 0 0-1.783-.106A15.841 15.841 0 0 0 6.064 4.343V2.09a1.59 1.59 0 1 0-3.18 0v6.359a1.517 1.517 0 0 0 .062.31 1.541 1.541 0 0 0 .224.55l.019.027a1.547 1.547 0 0 0 .388.391c.017.013.027.032.045.045a.585.585 0 0 0 .072.033 1.523 1.523 0 0 0 .286.134 1.571 1.571 0 0 0 .415.084c.029 0 .051.016.079.016h6.359a1.59 1.59 0 0 0 0-3.18zm19.015 17.177a1.537 1.537 0 0 0-.224-.548l-.017-.027a1.547 1.547 0 0 0-.39-.391c-.017-.013-.025-.032-.045-.045s-.037-.011-.054-.022a1.835 1.835 0 0 0-.652-.216c-.051 0-.094-.029-.145-.029h-6.359a1.59 1.59 0 0 0 0 3.18h2.833a12.676 12.676 0 0 1-8.4 3.18 11.246 11.246 0 0 1-1.4-.086 1.591 1.591 0 0 0-.382 3.159 14.888 14.888 0 0 0 1.781.107 15.841 15.841 0 0 0 10.334-3.843v2.253a1.59 1.59 0 0 0 3.18 0v-6.36a1.515 1.515 0 0 0-.064-.31zm.859-17.972a1.59 1.59 0 0 0 0-3.18h-6.36a1.513 1.513 0 0 0-.305.062h-.011a1.539 1.539 0 0 0-.541.223l-.032.021a1.549 1.549 0 0 0-.39.388c-.013.016-.032.025-.045.043s-.011.037-.022.054a1.822 1.822 0 0 0-.216.657 1.31 1.31 0 0 0-.029.141v6.359a1.59 1.59 0 1 0 3.18 0V7.998a12.679 12.679 0 0 1 3.18 8.4 11.589 11.589 0 0 1-.084 1.4 1.591 1.591 0 0 0 1.386 1.769 1.638 1.638 0 0 0 .194.011 1.59 1.59 0 0 0 1.576-1.4 14.585 14.585 0 0 0 .108-1.781 15.841 15.841 0 0 0-3.843-10.333z"/></svg>