<svg xmlns="http://www.w3.org/2000/svg" width="20" height="20" viewBox="0 0 20 20"><defs><style>.a{fill:#f0a2a2}</style></defs><path class="a" d="M9.29 13.29a1.58 1.58 0 0 0-.12.15.76.76 0 0 0-.09.18.64.64 0 0 0-.06.18 1.36 1.36 0 0 0 0 .2.84.84 0 0 0 .08.38.9.9 0 0 0 .54.54.94.94 0 0 0 .76 0 .9.9 0 0 0 .54-.54 1.009 1.009 0 0 0-1.65-1.09zM10 0a10 10 0 1 0 10 10A10 10 0 0 0 10 0zm0 18a8 8 0 1 1 8-8 8 8 0 0 1-8 8zm0-13a3 3 0 0 0-2.6 1.5 1 1 0 1 0 1.73 1A1 1 0 1 1 10 9a1 1 0 0 0-1 1v1a1 1 0 0 0 2 0v-.18A3 3 0 0 0 10 5z"/></svg>