<svg xmlns="http://www.w3.org/2000/svg" width="17.326" height="17.409" viewBox="0 0 17.326 17.409"><defs><style>.a{fill:none;stroke:#0278ca}</style></defs><path class="a" d="M8.663 2.915a5.831 5.831 0 0 1 5.831 5.831v7a1.166 1.166 0 0 1-1.166 1.166H4a1.166 1.166 0 0 1-1.166-1.166v-7a5.831 5.831 0 0 1 5.829-5.831zm0 0V0M4.581 13.41h8.163M.5 9.329v4.665m16.326-4.665v4.665m-10.5-2.915A1.166 1.166 0 1 1 7.5 9.912a1.166 1.166 0 0 1-1.169 1.166zm4.665 0a1.166 1.166 0 1 1 1.166-1.166A1.166 1.166 0 0 1 11 11.078z"/></svg>