<svg xmlns="http://www.w3.org/2000/svg" width="67" height="67" viewBox="0 0 67 67"><g transform="translate(-.5 -.5)" fill="none" stroke="#d6590b" stroke-miterlimit="10"><path d="M27.4 64.092A30.843 30.843 0 0 1 3.908 40.6m60.184 0A30.843 30.843 0 0 1 40.6 64.092m0-60.184A30.843 30.843 0 0 1 64.092 27.4m-60.184 0A30.843 30.843 0 0 1 27.4 3.908m0 16.175V1h13.2v19.083m7.317 7.317H67v13.2H47.917M40.6 47.917V67H27.4V47.917M20.083 40.6H1V27.4h19.083"/><circle cx="15" cy="15" r="15" transform="translate(19 19)" stroke-linecap="square"/></g></svg>