<svg xmlns="http://www.w3.org/2000/svg" width="18.11" height="15.362" viewBox="0 0 18.11 15.362"><path data-name="Path 65" d="M1.944 14.005l-.126.59.127-.59zm14.222 0l.126.59-.127-.59zm0-12.648l.126-.59-.127.59zm-14.222.005l.128.59-.127-.59zm5.904 3.9l.334-.5a.6.6 0 0 0-.938.5zm0 4.829h-.6a.6.6 0 0 0 .938.5zm3.622-2.41l.334.5a.6.6 0 0 0 0-1zM0 3.016v9.33h1.207v-9.33zm18.11 9.33v-9.33H16.9v9.33zM1.818 14.595a34.525 34.525 0 0 0 14.473 0l-.254-1.181a33.328 33.328 0 0 1-13.966 0l-.254 1.181zM16.292.762a34.537 34.537 0 0 0-14.473 0l.254 1.181a33.33 33.33 0 0 1 13.966 0zm1.818 2.254A2.3 2.3 0 0 0 16.292.762l-.254 1.181a1.093 1.093 0 0 1 .862 1.073h1.21zm-1.21 9.33a1.093 1.093 0 0 1-.864 1.068l.253 1.181a2.3 2.3 0 0 0 1.818-2.249zm-16.9 0a2.3 2.3 0 0 0 1.818 2.249l.254-1.181a1.093 1.093 0 0 1-.864-1.068zm1.207-9.33a1.092 1.092 0 0 1 .864-1.068L1.818.762A2.3 2.3 0 0 0 0 3.016zm6.037 2.246v4.829h1.207V5.262zm.938 5.332L11.8 8.183l-.669-1-3.618 2.41.669 1zM11.8 7.179L8.182 4.762l-.669 1 3.622 2.415z" fill="#111"/></svg>